PathFileType	4	(X/Y/Z)	C:/Users/opensim2020/Desktop/walking_exp_matlab/subject06_walking23_straight_04.trc																																																																																																																																					
DataRate	CameraRate	NumFrames	NumMarkers	Units	OrigDataRate	OrigDataStartFrame	OrigNumFrames																																																																																																																																	
100	100	6	45	mm	100	2392	145																																																																																																																																	
Frame#	Time	LFHD			RFHD			LBHD			RBHD			C7			T10			CLAV			STRN			RBAK			LSHO			LUPA			LELB			LFRM			LWRA			LWRB			LFIN			RSHO			RUPA			RELB			RFRM			RWRA			RWRB			RFIN			LASI			RASI			LPSI			RPSI			LTHI			LKNE			LTIB			LANK			LHEE			LTOE			RTHI			RKNE			RTIB			RANK			RHEE			RTOE			*39			*40			*41			*42			*43			*44		
		X1	Y1	Z1	X2	Y2	Z2	X3	Y3	Z3	X4	Y4	Z4	X5	Y5	Z5	X6	Y6	Z6	X7	Y7	Z7	X8	Y8	Z8	X9	Y9	Z9	X10	Y10	Z10	X11	Y11	Z11	X12	Y12	Z12	X13	Y13	Z13	X14	Y14	Z14	X15	Y15	Z15	X16	Y16	Z16	X17	Y17	Z17	X18	Y18	Z18	X19	Y19	Z19	X20	Y20	Z20	X21	Y21	Z21	X22	Y22	Z22	X23	Y23	Z23	X24	Y24	Z24	X25	Y25	Z25	X26	Y26	Z26	X27	Y27	Z27	X28	Y28	Z28	X29	Y29	Z29	X30	Y30	Z30	X31	Y31	Z31	X32	Y32	Z32	X33	Y33	Z33	X34	Y34	Z34	X35	Y35	Z35	X36	Y36	Z36	X37	Y37	Z37	X38	Y38	Z38	X39	Y39	Z39	X40	Y40	Z40	X41	Y41	Z41	X42	Y42	Z42	X43	Y43	Z43	X44	Y44	Z44	X45	Y45	Z45
																																																																																																																																								
127	1.26	817.26044	1638.14539	887.1637	828.28925	1637.37439	1019.53662	686.60986	1579.06567	902.73627	699.24677	1582.76379	1031.46863	697.80457	1422.81384	960.55463	686.39575	1092.40125	981.59039	813.7132	1354.94775	966.34454	866.2146	1184.74207	970.60986	633.00153	1250.88733	1042.25488	758.4679	1376.77856	801.59302	723.52466	1178.0155	737.01117	693.41754	1068.44775	732.20367	684.49487	918.37531	713.63763	715.10114	793.47186	760.13403	657.18909	802.5777	720.32605	672.93433	712.26953	726.5553	755.18903	1391.02527	1124.31116	709.53766	1201.21191	1221.64771	724.00018	1083.86145	1244.63672	782.57422	983.55096	1266.47693	900.1416	891.52191	1236.50183	851.65619	866.53766	1275.50537	920.09796	818.25696	1279.19385	881.77258	952.54156	887.67297	859.52942	947.5614	1103.51624	719.58752	966.19244	901.23523	710.35156	962.40027	1068.76697	893.14056	642.72198	829.68658	941.51105	490.10828	866.755	937.43353	230.47794	879.60779	936.86084	62.51282	928.45953	895.17554	50.38631	972.7688	1080.26721	36.00049	938.79547	805.80151	600.89844	1164.37915	813.8443	473.36859	1154.24268	615.77722	312.39252	1121.94946	472.4028	207.48178	1060.00806	446.59976	233.47198	1010.8429	494.61172	51.06467	1048.68787	720.55225	1676.72412	952.06787	NaN	NaN	NaN	NaN	NaN	NaN	NaN	NaN	NaN	NaN	NaN	NaN	NaN	NaN	NaN
128	1.27	827.92084	1639.2168	885.83984	839.51862	1638.89954	1018.19586	697.61676	1579.61023	902.16388	710.66125	1583.77124	1030.88623	709.58667	1423.98438	960.00726	698.00378	1093.32068	981.35895	825.61163	1356.20276	965.82153	878.27881	1186.11523	969.97467	644.60492	1252.17114	1042.21448	770.53101	1377.58081	800.88599	738.00226	1178.19739	736.21173	709.45605	1068.3429	730.93494	702.72363	918.07965	712.638	734.96521	793.7395	759.7041	677.45319	801.80872	719.20129	694.39618	711.82703	725.83051	767.24017	1391.8457	1123.87341	721.7403	1201.64673	1220.68689	735.60754	1084.02527	1243.11414	792.64166	982.58276	1264.87756	908.45898	887.99554	1235.29602	859.43506	864.21088	1274.23743	926.6684	814.27936	1278.12915	893.03253	953.91138	886.9043	871.38477	948.49982	1103.10095	731.09979	967.05054	900.75879	722.12018	962.44928	1068.41785	902.78082	642.74957	830.07263	950.27655	489.7417	867.14862	939.86591	230.74759	880.54535	937.07214	62.73367	928.88922	895.3139	50.59436	973.10773	1080.62732	35.62565	938.95996	825.10132	601.47961	1164.5144	838.07092	474.64667	1155.25098	642.2403	314.61417	1125.52625	495.17947	214.71228	1063.08447	470.30807	241.44138	1013.67474	511.47549	56.81228	1052.51538	731.3844	1677.6543	951.09283	NaN	NaN	NaN	NaN	NaN	NaN	NaN	NaN	NaN	NaN	NaN	NaN	NaN	NaN	NaN
129	1.28	838.58643	1640.54041	884.59296	850.71307	1640.65259	1016.90442	708.53931	1580.48511	901.68042	722.15454	1585.1062	1030.33765	721.59631	1425.65552	959.53766	709.75104	1094.39551	980.76843	837.41113	1357.63269	965.33435	890.02966	1187.61401	969.32031	656.2973	1253.59766	1042.30286	782.36957	1378.39856	800.36243	752.54913	1178.41321	735.43518	725.63721	1068.16187	729.66241	721.56653	917.77252	711.35016	755.31696	794.10248	759.28479	697.75159	801.13855	717.63965	716.54199	711.49585	725.00311	779.35065	1392.86719	1123.58191	733.91492	1202.28784	1220.05676	747.09448	1084.26123	1241.92944	802.45966	981.56995	1263.547	916.60706	884.51892	1234.14514	866.93213	861.88068	1272.98364	933.02484	810.3808	1276.86243	903.97925	955.40161	886.35742	882.86194	949.8714	1102.94641	742.56897	967.83313	900.17682	733.55554	962.84149	1067.90991	912.28107	642.75262	830.28607	958.14362	489.306	867.48267	941.55273	231.36197	881.32318	937.22638	63.16791	929.12549	895.33893	50.69779	973.43384	1080.89893	35.44922	939.33411	844.47803	602.89954	1164.42261	862.20087	476.86407	1155.8092	669.59546	315.64255	1128.00964	517.97461	220.91814	1065.66211	492.25763	246.72702	1015.98151	534.59705	62.30934	1057.89014	742.20599	1678.77844	950.2312	NaN	NaN	NaN	NaN	NaN	NaN	NaN	NaN	NaN	NaN	NaN	NaN	NaN	NaN	NaN
130	1.29	849.28986	1642.00317	883.41058	861.91498	1642.47839	1015.71387	719.46832	1581.60156	901.1463	733.66504	1586.51929	1029.72437	733.41327	1427.50916	958.96014	720.57556	1095.95776	980.3858	849.10645	1359.21655	964.93054	901.55304	1189.24585	968.65338	667.47992	1255.69995	1042.24573	794.05658	1379.48645	799.83783	767.1109	1178.80774	734.6825	741.74438	1068.10706	728.58966	740.8161	917.71832	710.31067	776.36078	794.76447	758.95233	719.70557	800.9801	716.45123	739.30786	711.4447	724.12573	791.52032	1394.11877	1123.41528	746.20746	1203.03247	1219.23462	758.67151	1084.59277	1241.04431	812.22498	980.59967	1262.27405	924.44653	881.09845	1232.96985	874.07483	859.52667	1271.69336	939.03448	806.55029	1275.61487	914.66766	957.03058	885.91083	894.22333	951.82617	1102.84216	753.62756	968.69702	899.5144	744.69556	963.56488	1067.2926	921.23993	642.90417	830.56952	965.03467	488.95593	867.61346	943.39056	231.98386	882.02191	937.37567	63.12525	929.65405	895.41406	50.86902	973.79187	1081.24756	35.37661	939.72888	863.91302	605.08722	1163.99707	885.90479	480.04086	1156.02075	694.89752	317.89795	1129.93372	542.20886	225.34073	1068.35657	514.2428	249.57065	1018.789	563.1156	67.40471	1063.6488	753.03278	1680.10022	949.44122	NaN	NaN	NaN	NaN	NaN	NaN	NaN	NaN	NaN	NaN	NaN	NaN	NaN	NaN	NaN
131	1.3	859.93518	1643.53467	882.41028	873.14325	1644.30481	1014.64435	730.35559	1582.7937	900.78662	745.04688	1588.03857	1029.26953	745.02136	1429.28149	958.80853	731.19135	1097.83911	979.91064	860.62457	1360.78027	964.55859	912.81335	1190.89014	968.03778	678.94812	1257.71106	1042.20459	805.5675	1380.72595	799.48315	781.70374	1179.44458	734.04022	758.42828	1068.27441	727.41852	760.40698	917.84271	709.29242	797.69659	795.69824	758.5014	741.22406	800.55829	715.38483	763.10242	711.81836	722.89459	803.56891	1395.45068	1123.20813	758.40955	1204.07886	1218.72278	770.28217	1085.10706	1240.2196	821.90973	979.77594	1261.08557	931.97223	877.76996	1231.79626	881.13751	857.43085	1270.43982	944.72833	802.87262	1274.32263	924.86066	958.67035	885.60248	905.48889	954.15741	1102.75867	764.13904	969.74756	898.92468	755.70294	964.50317	1066.48779	929.44751	643.1441	830.90887	971.1767	488.63474	867.6546	945.50415	232.28743	882.41498	937.61041	63.50293	929.88385	895.57251	51.01926	974.12616	1081.59766	35.43047	939.9198	883.27393	608.03894	1163.48059	909.54248	483.73114	1155.63623	719.46204	321.168	1131.07141	567.3476	227.78082	1071.33875	536.57007	250.02226	1022.09326	595.0481	71.00375	1069.42542	763.80084	1681.56494	948.74963	NaN	NaN	NaN	NaN	NaN	NaN	NaN	NaN	NaN	NaN	NaN	NaN	NaN	NaN	NaN
132	1.31	870.58661	1645.15833	881.43921	884.34424	1646.11157	1013.64563	741.32861	1584.0647	900.43378	755.44922	1589.79504	1027.84485	756.41418	1430.9552	958.66949	741.80493	1099.66907	979.26379	872.03265	1362.41895	964.17291	923.8244	1192.54724	967.36694	690.00305	1259.8656	1041.88257	816.96381	1382.15955	799.17352	796.23602	1180.32983	733.47852	775.34717	1068.7926	726.23022	780.4577	918.34241	708.33691	819.23981	796.91022	757.96802	763.41461	800.73047	714.22772	787.32446	712.66528	721.6618	815.53259	1397.00171	1122.99609	770.62531	1205.33179	1218.14966	782.14331	1085.96606	1239.3877	831.51447	979.20135	1259.9978	939.22516	874.64282	1230.61401	887.81403	855.60059	1269.30713	950.11298	799.41821	1273.22998	935.09686	960.33789	884.87518	916.70306	956.68463	1102.22754	774.80829	970.68103	898.24683	766.69708	965.74957	1065.73108	937.00464	643.53882	831.17261	976.85956	488.35516	867.69885	947.47888	232.24652	882.65686	937.7384	63.70224	930.13501	895.60059	51.22311	974.32013	1081.92932	35.25687	940.05579	902.43457	611.4743	1162.86072	932.82855	487.97766	1154.7478	744.31018	324.12314	1132.25269	592.85107	228.14388	1074.75159	560.00903	248.30347	1025.63098	627.97437	73.26709	1075.1073	774.60736	1682.8916	948.16504	NaN	NaN	NaN	NaN	NaN	NaN	NaN	NaN	NaN	NaN	NaN	NaN	NaN	NaN	NaN
